Coordinates
version=1
nRows=65
nColumns=12
inDegrees=yes

Units are S.I. units (second, meters, Newtons, ...)
Angles are in degrees

endheader
time	SC_y	SC_z	SC_x	AC_y	AC_z	AC_x	GH_y	GH_z	GH_yy	EL_x	PS_y
       0.0              -54.49          38.25          20.25          46.12          3.463          -7.49         -94.87          25.71          42.68          80.78          8.884
  0.003131              -54.49          38.25          20.25          46.12          3.462         -7.492         -94.87          25.72          42.69          80.78          8.893
  0.006261              -54.48          38.25          20.26          46.12           3.46         -7.494         -94.88          25.72           42.7          80.77          8.904
  0.009392              -54.48          38.25          20.26          46.12          3.459         -7.496         -94.89          25.73          42.71          80.77          8.915
   0.01252              -54.47          38.25          20.26          46.12          3.457         -7.498          -94.9          25.73          42.73          80.76          8.927
   0.01565              -54.47          38.25          20.26          46.12          3.456           -7.5         -94.91          25.74          42.74          80.76          8.939
   0.01878              -54.46          38.25          20.26          46.12          3.454         -7.502         -94.92          25.74          42.76          80.75          8.953
   0.02191              -54.46          38.25          20.26          46.12          3.452         -7.504         -94.93          25.75          42.77          80.75          8.967
   0.02504              -54.45          38.25          20.26          46.12           3.45         -7.507         -94.95          25.76          42.79          80.74          8.982
   0.02817              -54.45          38.25          20.26          46.12          3.448          -7.51         -94.96          25.76          42.81          80.74          8.999
   0.03131              -54.44          38.25          20.26          46.12          3.446         -7.513         -94.97          25.77          42.83          80.73          9.017
   0.03444              -54.43          38.25          20.27          46.12          3.443         -7.516         -94.99          25.78          42.85          80.73          9.036
   0.03757              -54.42          38.25          20.27          46.12          3.441          -7.52         -95.01          25.79          42.87          80.72          9.056
    0.0407              -54.41          38.25          20.27          46.12          3.438         -7.523         -95.03           25.8           42.9          80.71          9.078
   0.04383              -54.41          38.25          20.27          46.11          3.435         -7.527         -95.05          25.81          42.93           80.7          9.102
   0.04696              -54.39          38.25          20.27          46.11          3.431         -7.532         -95.07          25.82          42.96          80.69          9.128
   0.05009              -54.38          38.25          20.28          46.11          3.427         -7.536         -95.09          25.83          42.99          80.68          9.157
   0.05322              -54.37          38.26          20.28          46.11          3.423         -7.542         -95.12          25.85          43.03          80.67          9.188
   0.05635              -54.36          38.26          20.28          46.11          3.419         -7.547         -95.14          25.86          43.06          80.66          9.221
   0.05948              -54.34          38.26          20.28          46.11          3.414         -7.554         -95.17          25.88          43.11          80.65          9.258
   0.06261              -54.33          38.26          20.29          46.11          3.409          -7.56         -95.21          25.89          43.15          80.63          9.299
   0.06574              -54.31          38.26          20.29           46.1          3.403         -7.568         -95.24          25.91           43.2          80.62          9.343
   0.06887              -54.29          38.26           20.3           46.1          3.397         -7.576         -95.28          25.93          43.26           80.6          9.392
     0.072              -54.27          38.26           20.3           46.1           3.39         -7.585         -95.33          25.96          43.32          80.58          9.447
   0.07513              -54.24          38.26          20.31           46.1          3.382         -7.596         -95.38          25.98          43.39          80.56          9.507
   0.07826              -54.22          38.26          20.31          46.09          3.373         -7.607         -95.43          26.01          43.47          80.54          9.575
   0.08139              -54.19          38.26          20.32          46.09          3.363          -7.62          -95.5          26.05          43.56          80.51          9.651
   0.08452              -54.15          38.26          20.32          46.09          3.352         -7.634         -95.57          26.08          43.65          80.48          9.736
   0.08765              -54.12          38.27          20.33          46.08           3.34          -7.65         -95.65          26.13          43.76          80.45          9.832
   0.09079              -54.07          38.27          20.34          46.08          3.326         -7.669         -95.73          26.17          43.89          80.41          9.942
   0.09392              -54.02          38.27          20.35          46.07          3.309          -7.69         -95.84          26.23          44.03          80.37          10.07
   0.09705              -53.97          38.27          20.36          46.07          3.291         -7.714         -95.96          26.29           44.2          80.32          10.21
    0.1002               -53.9          38.28          20.38          46.06          3.269         -7.742         -96.09          26.36          44.39          80.26          10.38
    0.1033              -53.83          38.28          20.39          46.05          3.245         -7.774         -96.25          26.45          44.61          80.19          10.57
    0.1064              -53.74          38.28          20.41          46.04          3.215         -7.812         -96.43          26.54          44.86          80.12          10.79
    0.1096              -53.63          38.29          20.43          46.03          3.181         -7.857         -96.65          26.66          45.17          80.02          11.06
    0.1127              -53.51          38.29          20.46          46.02           3.14          -7.91         -96.91           26.8          45.53          79.91          11.37
    0.1158              -53.36           38.3          20.49           46.0          3.091         -7.974         -97.22          26.96          45.96          79.78          11.75
     0.119              -53.18          38.31          20.53          45.98          3.032         -8.051          -97.6          27.16          46.48          79.62          12.21
    0.1221              -52.96          38.32          20.57          45.96           2.96         -8.145         -98.05           27.4          47.12          79.43          12.76
    0.1252              -52.69          38.33          20.63          45.93           2.87         -8.261         -98.62           27.7          47.91          79.19          13.45
    0.1284              -52.35          38.34           20.7           45.9          2.759         -8.406         -99.32          28.08           48.9          78.89          14.31
    0.1315              -51.92          38.36          20.79          45.85          2.619         -8.589         -100.2          28.55          50.14          78.52          15.39
    0.1346              -51.38          38.38           20.9          45.79           2.44         -8.821         -101.3          29.15          51.71          78.04          16.77
    0.1377              -50.68          38.41          21.05          45.72          2.212         -9.117         -102.8          29.91          53.73          77.43          18.53
    0.1409              -49.79          38.45          21.23          45.62          1.919         -9.498         -104.6           30.9          56.32          76.64          20.79
     0.144              -48.65           38.5          21.47           45.5          1.545         -9.985         -107.0          32.15          59.62          75.64          23.67
    0.1471              -47.21          38.56          21.77          45.35          1.074          -10.6         -110.0          33.73          63.78          74.38           27.3
    0.1503              -45.47          38.64          22.13          45.16         0.5007         -11.34         -113.6          35.66          68.85          72.85          31.72
    0.1534              -43.44          38.73          22.56          44.95         -0.164         -12.21         -117.8          37.89          74.72          71.07          36.85
    0.1565              -41.25          38.82          23.01          44.71        -0.8837         -13.14         -122.4          40.31          81.08          69.14           42.4
    0.1597              -39.06          38.91          23.47          44.48         -1.603         -14.08         -126.9          42.72          87.44          67.21          47.95
    0.1628              -37.03           39.0          23.89          44.27         -2.268         -14.94         -131.2          44.95          93.31          65.43          53.07
    0.1659              -35.29          39.08          24.25          44.08         -2.842         -15.69         -134.8          46.88          98.38          63.89          57.49
     0.169              -33.85          39.14          24.55          43.93         -3.312          -16.3         -137.8          48.46          102.5          62.63          61.12
    0.1722              -32.71          39.19          24.79          43.81         -3.686         -16.79         -140.1          49.72          105.8          61.63          64.01
    0.1753              -31.82          39.23          24.98          43.71         -3.979         -17.17         -142.0           50.7          108.4          60.85          66.26
    0.1784              -31.13          39.26          25.12          43.64         -4.208         -17.47         -143.4          51.47          110.4          60.24          68.02
    0.1816              -30.58          39.28          25.23          43.58         -4.386          -17.7         -144.6          52.06          112.0          59.76           69.4
    0.1847              -30.15           39.3          25.32          43.53         -4.526         -17.88         -145.5          52.54          113.3          59.38          70.48
    0.1878              -29.82          39.31          25.39           43.5         -4.638         -18.03         -146.2          52.91          114.2          59.08          71.34
     0.191              -29.54          39.32          25.45          43.47         -4.727         -18.14         -146.7          53.21          115.0          58.85          72.03
    0.1941              -29.32          39.33           25.5          43.44         -4.799         -18.24         -147.2          53.45          115.7          58.65          72.59
    0.1972              -29.14          39.34          25.53          43.43         -4.859         -18.31         -147.6          53.65          116.2          58.49          73.04
    0.2004              -28.99          39.35          25.57          43.41         -4.908         -18.38         -147.9          53.82          116.6          58.36          73.42
